<mxfile host="app.diagrams.net" modified="2023-05-07T22:58:01.097Z" agent="Mozilla/5.0 (Macintosh; Intel Mac OS X 10_15_7) AppleWebKit/537.36 (KHTML, like Gecko) Chrome/113.0.0.0 Safari/537.36" etag="bLuwaWTh74oAHR2dkTiB" version="21.2.9" type="google">
  <diagram name="Page-1" id="xiYDhgylSOjBJ-1Uy11I">
    <mxGraphModel grid="1" page="1" gridSize="10" guides="1" tooltips="1" connect="1" arrows="1" fold="1" pageScale="1" pageWidth="850" pageHeight="1100" math="0" shadow="0">
      <root>
        <mxCell id="0" />
        <mxCell id="1" parent="0" />
        <mxCell id="FL8dhA2qiKfpbdnIkAt7-10" style="edgeStyle=orthogonalEdgeStyle;rounded=0;orthogonalLoop=1;jettySize=auto;html=1;exitX=1;exitY=0.5;exitDx=0;exitDy=0;strokeColor=default;" edge="1" parent="1" source="FL8dhA2qiKfpbdnIkAt7-1" target="FL8dhA2qiKfpbdnIkAt7-3">
          <mxGeometry relative="1" as="geometry" />
        </mxCell>
        <mxCell id="FL8dhA2qiKfpbdnIkAt7-11" style="edgeStyle=orthogonalEdgeStyle;rounded=0;orthogonalLoop=1;jettySize=auto;html=1;exitX=0.5;exitY=1;exitDx=0;exitDy=0;" edge="1" parent="1" source="FL8dhA2qiKfpbdnIkAt7-1" target="FL8dhA2qiKfpbdnIkAt7-2">
          <mxGeometry relative="1" as="geometry" />
        </mxCell>
        <mxCell id="FL8dhA2qiKfpbdnIkAt7-1" value="&lt;b&gt;&lt;font style=&quot;font-size: 25px;&quot;&gt;1&lt;/font&gt;&lt;/b&gt;" style="ellipse;whiteSpace=wrap;html=1;aspect=fixed;" vertex="1" parent="1">
          <mxGeometry x="130" y="110" width="80" height="80" as="geometry" />
        </mxCell>
        <mxCell id="FL8dhA2qiKfpbdnIkAt7-17" style="edgeStyle=orthogonalEdgeStyle;rounded=0;orthogonalLoop=1;jettySize=auto;html=1;exitX=1;exitY=1;exitDx=0;exitDy=0;" edge="1" parent="1" source="FL8dhA2qiKfpbdnIkAt7-2" target="FL8dhA2qiKfpbdnIkAt7-4">
          <mxGeometry relative="1" as="geometry" />
        </mxCell>
        <mxCell id="FL8dhA2qiKfpbdnIkAt7-2" value="&lt;b&gt;&lt;font style=&quot;font-size: 25px;&quot;&gt;7&lt;/font&gt;&lt;/b&gt;" style="ellipse;whiteSpace=wrap;html=1;aspect=fixed;fillColor=#fff2cc;strokeColor=#d6b656;" vertex="1" parent="1">
          <mxGeometry x="130" y="310" width="80" height="80" as="geometry" />
        </mxCell>
        <mxCell id="FL8dhA2qiKfpbdnIkAt7-12" style="edgeStyle=orthogonalEdgeStyle;rounded=0;orthogonalLoop=1;jettySize=auto;html=1;exitX=1;exitY=0.5;exitDx=0;exitDy=0;" edge="1" parent="1" source="FL8dhA2qiKfpbdnIkAt7-3" target="FL8dhA2qiKfpbdnIkAt7-4">
          <mxGeometry relative="1" as="geometry" />
        </mxCell>
        <mxCell id="FL8dhA2qiKfpbdnIkAt7-13" style="edgeStyle=orthogonalEdgeStyle;rounded=0;orthogonalLoop=1;jettySize=auto;html=1;exitX=0.5;exitY=1;exitDx=0;exitDy=0;entryX=1;entryY=0.5;entryDx=0;entryDy=0;" edge="1" parent="1" source="FL8dhA2qiKfpbdnIkAt7-3" target="FL8dhA2qiKfpbdnIkAt7-2">
          <mxGeometry relative="1" as="geometry" />
        </mxCell>
        <mxCell id="FL8dhA2qiKfpbdnIkAt7-3" value="&lt;b&gt;&lt;font style=&quot;font-size: 25px;&quot;&gt;2&lt;/font&gt;&lt;/b&gt;" style="ellipse;whiteSpace=wrap;html=1;aspect=fixed;" vertex="1" parent="1">
          <mxGeometry x="320" y="70" width="80" height="80" as="geometry" />
        </mxCell>
        <mxCell id="FL8dhA2qiKfpbdnIkAt7-4" value="&lt;b&gt;&lt;font style=&quot;font-size: 25px;&quot;&gt;3&lt;/font&gt;&lt;/b&gt;" style="ellipse;whiteSpace=wrap;html=1;aspect=fixed;" vertex="1" parent="1">
          <mxGeometry x="560" y="110" width="80" height="80" as="geometry" />
        </mxCell>
        <mxCell id="FL8dhA2qiKfpbdnIkAt7-15" style="edgeStyle=orthogonalEdgeStyle;rounded=0;orthogonalLoop=1;jettySize=auto;html=1;" edge="1" parent="1" source="FL8dhA2qiKfpbdnIkAt7-5" target="FL8dhA2qiKfpbdnIkAt7-2">
          <mxGeometry relative="1" as="geometry" />
        </mxCell>
        <mxCell id="FL8dhA2qiKfpbdnIkAt7-5" value="&lt;b&gt;&lt;font style=&quot;font-size: 25px;&quot;&gt;5&lt;/font&gt;&lt;/b&gt;" style="ellipse;whiteSpace=wrap;html=1;aspect=fixed;" vertex="1" parent="1">
          <mxGeometry x="425" y="430" width="80" height="80" as="geometry" />
        </mxCell>
        <mxCell id="FL8dhA2qiKfpbdnIkAt7-6" value="&lt;b&gt;&lt;font style=&quot;font-size: 25px;&quot;&gt;6&lt;/font&gt;&lt;/b&gt;" style="ellipse;whiteSpace=wrap;html=1;aspect=fixed;fillColor=#fff2cc;strokeColor=#d6b656;" vertex="1" parent="1">
          <mxGeometry x="690" y="90" width="80" height="80" as="geometry" />
        </mxCell>
        <mxCell id="FL8dhA2qiKfpbdnIkAt7-14" style="edgeStyle=orthogonalEdgeStyle;rounded=0;orthogonalLoop=1;jettySize=auto;html=1;exitX=0.5;exitY=1;exitDx=0;exitDy=0;entryX=1;entryY=0.5;entryDx=0;entryDy=0;" edge="1" parent="1" source="FL8dhA2qiKfpbdnIkAt7-7" target="FL8dhA2qiKfpbdnIkAt7-5">
          <mxGeometry relative="1" as="geometry" />
        </mxCell>
        <mxCell id="FL8dhA2qiKfpbdnIkAt7-7" value="&lt;b&gt;&lt;font style=&quot;font-size: 25px;&quot;&gt;4&lt;/font&gt;&lt;/b&gt;" style="ellipse;whiteSpace=wrap;html=1;aspect=fixed;fillColor=#fff2cc;strokeColor=#d6b656;" vertex="1" parent="1">
          <mxGeometry x="690" y="250" width="80" height="80" as="geometry" />
        </mxCell>
      </root>
    </mxGraphModel>
  </diagram>
</mxfile>
